# xmcd
# 
# Track frame offsets:
#     150
#     16142
#     28982
#     39787
#     56030
#     72845
#     86295
#     97600
#     108712
#     120702
# 
# Disc length: 1884
# 
# Revision: 1
# Processed by: cddbd v1.5.2PL0 Copyright (c) Steve Scherf et al.
# Submitted via: BonkEnc v1.0.8
# 
DISCID=74075a0a
DTITLE=Dave Frishberg - Oklahoma Toad
DYEAR=1970
DGENRE=Vocal
TTITLE0=One Horse Town
TTITLE1=Van Lingle Mungo
TTITLE2=The Secret Of Success
TTITLE3=Oklahoma Toad
TTITLE4=The Prophet Of Doom
TTITLE5=Rocky Mountain Water
TTITLE6=You Can't Go
TTITLE7=Wallflower Lonely, Cornflower Blue
TTITLE8=Nasty Nasty Habit
TTITLE9=I Don't Believe You
EXTD=YEAR: 1970
EXTT0=
EXTT1=
EXTT2=
EXTT3=
EXTT4=
EXTT5=
EXTT6=
EXTT7=
EXTT8=
EXTT9=
PLAYORDER=
